<?xml version="1.0" standalone="no"?>
<!DOCTYPE svg PUBLIC "-//W3C//DTD SVG 20010904//EN"
 "http://www.w3.org/TR/2001/REC-SVG-20010904/DTD/svg10.dtd">
<svg version="1.0" xmlns="http://www.w3.org/2000/svg"
 width="640.000000pt" height="209.000000pt" viewBox="0 0 640.000000 209.000000"
 preserveAspectRatio="xMidYMid meet">

<g transform="translate(0.000000,209.000000) scale(0.100000,-0.100000)"
fill="#000000" stroke="none">
<path d="M287 1858 c-16 -12 -17 -69 -15 -793 l3 -780 2890 -3 c2708 -2 2891
-1 2903 15 9 13 12 185 12 778 0 725 -1 763 -18 778 -17 16 -232 17 -2888 17
-2280 0 -2874 -3 -2887 -12z m5703 -783 l0 -705 -1525 0 -1525 0 0 705 0 705
1525 0 1525 0 0 -705z m-4256 563 c67 -39 153 -90 191 -113 39 -23 131 -77
205 -120 74 -43 194 -113 265 -155 72 -42 167 -98 213 -124 45 -26 82 -51 82
-54 0 -4 -46 -34 -103 -67 -56 -33 -180 -106 -275 -162 -95 -57 -174 -103
-176 -103 -2 0 -111 -64 -242 -141 -132 -78 -250 -149 -264 -157 -24 -14 -31
-12 -160 65 -74 45 -188 112 -253 149 -486 284 -697 410 -697 416 0 3 21 18
48 34 26 15 129 76 230 135 100 60 184 109 186 109 2 0 141 81 307 180 167 99
308 180 313 180 5 0 64 -32 130 -72z"/>
<path d="M3556 1654 c-3 -9 4 -25 20 -39 25 -24 26 -26 10 -49 -9 -14 -16 -32
-16 -40 0 -8 35 -38 77 -66 l77 -52 29 32 28 31 117 -78 c64 -43 159 -107 210
-142 l92 -63 0 -83 c0 -69 3 -87 21 -109 15 -19 18 -31 11 -38 -18 -18 -47 -4
-50 25 -3 27 -4 27 -78 27 l-75 0 3 -137 3 -138 70 0 c66 0 69 1 75 25 4 18
14 26 33 28 23 3 27 0 27 -23 0 -22 -9 -30 -56 -51 -79 -35 -189 -63 -258 -66
l-59 -3 -35 45 c-46 60 -41 92 36 250 66 136 88 220 75 284 l-9 40 -284 134
c-157 74 -297 137 -312 139 -51 9 -45 -21 19 -91 67 -73 104 -140 110 -200 4
-35 -3 -53 -42 -121 -167 -287 -194 -447 -109 -637 l17 -38 1237 0 c1058 0
1239 2 1249 14 28 33 -55 135 -145 179 -24 11 -44 28 -44 36 1 25 34 92 72
147 19 27 41 64 48 82 15 39 17 156 2 193 -16 40 -70 98 -113 120 -83 42 -252
43 -333 2 -81 -40 -136 -129 -136 -218 0 -54 28 -129 71 -189 82 -115 13 -75
-128 74 -109 114 -182 159 -275 167 -57 6 -67 11 -255 142 l-196 136 -21 75
c-42 147 -119 216 -241 214 -71 -1 -140 -29 -140 -58 0 -15 14 -23 63 -36 101
-28 141 -79 151 -190 l6 -64 170 -117 c183 -125 226 -158 209 -159 -6 0 -80
48 -165 106 -85 59 -242 166 -349 239 -107 73 -258 176 -335 229 -76 53 -147
96 -156 96 -9 0 -20 -7 -23 -16z m631 -95 c67 -25 120 -108 138 -216 7 -42 9
-45 186 -165 98 -68 179 -126 179 -130 0 -25 -56 3 -173 83 -73 50 -160 110
-193 132 -60 41 -62 43 -68 96 -10 84 -42 144 -100 189 -32 24 -17 30 31 11z
m-485 -32 c14 -11 24 -26 21 -33 -4 -10 -15 -7 -44 13 -39 26 -45 34 -33 46 7
7 15 3 56 -26z m81 -257 c81 -39 107 -56 107 -71 0 -17 -8 -19 -62 -19 -70 0
-94 -10 -85 -34 5 -12 21 -16 72 -16 42 0 64 -4 60 -10 -3 -5 -42 -10 -86 -10
-71 0 -80 -2 -77 -17 3 -15 17 -19 78 -24 l75 -5 -80 -2 c-81 -2 -108 -12 -98
-38 4 -10 25 -14 74 -14 39 0 69 -4 69 -10 0 -6 -34 -10 -83 -10 -88 0 -104
-5 -86 -27 7 -8 34 -13 75 -13 36 0 64 -4 64 -10 0 -6 -35 -10 -86 -10 -76 0
-85 -2 -82 -17 3 -15 16 -19 71 -21 37 -2 67 -7 67 -13 0 -6 -30 -9 -80 -8
-84 3 -96 -1 -87 -26 5 -11 23 -15 77 -15 45 0 69 -4 65 -10 -3 -5 -44 -10
-91 -10 -76 0 -85 -2 -82 -17 3 -15 16 -18 86 -21 114 -4 104 -22 -12 -22 -52
0 -97 -4 -100 -9 -12 -19 25 -30 115 -34 l94 -3 -110 -2 c-114 -2 -146 -12
-124 -39 9 -9 46 -13 140 -13 79 0 129 -4 129 -10 0 -6 -46 -10 -118 -10 -140
0 -222 -13 -279 -45 l-43 -23 -10 36 c-28 103 2 258 76 392 111 199 116 212
110 265 -3 28 -19 75 -34 106 l-29 57 106 -48 c58 -26 154 -71 214 -100z
m1767 -81 c93 -21 144 -74 156 -163 l7 -45 -54 -3 c-42 -2 -55 -7 -57 -20 -3
-15 4 -18 42 -18 72 0 54 -19 -21 -22 -55 -2 -68 -6 -71 -20 -3 -15 5 -18 52
-18 85 0 67 -19 -21 -22 -61 -2 -78 -6 -78 -18 0 -11 14 -16 58 -18 86 -4 69
-21 -25 -24 -70 -3 -83 -6 -86 -20 -3 -16 5 -18 67 -18 41 0 71 -4 71 -10 0
-5 -16 -10 -35 -10 -28 0 -35 -4 -35 -20 0 -15 7 -20 25 -20 14 0 25 -5 25
-10 0 -7 -13 -9 -32 -6 -18 3 -55 8 -83 11 -86 11 -93 15 -106 52 -6 19 -30
63 -54 97 -53 77 -69 125 -63 187 5 51 41 109 81 131 60 32 162 44 237 27z
m-1162 -130 c64 -44 122 -86 129 -92 9 -9 -8 -30 -71 -85 -45 -41 -97 -83
-114 -94 l-32 -20 0 115 c0 99 -3 118 -20 140 -13 17 -20 40 -20 71 0 25 2 46
5 46 3 0 58 -36 123 -81z m539 -90 c49 -23 81 -50 149 -124 132 -144 206 -184
388 -210 57 -8 127 -23 155 -34 55 -21 121 -65 121 -82 0 -5 -439 -9 -1172 -9
-1151 1 -1173 1 -1150 20 33 28 109 40 250 40 365 1 613 81 806 260 116 107
191 153 280 169 59 11 102 3 173 -30z m-785 -26 c3 -26 6 -28 56 -31 l53 -3
-3 -37 c-3 -37 -4 -37 -53 -42 -46 -5 -50 -7 -53 -32 -3 -25 -8 -28 -38 -28
l-34 0 0 100 0 100 34 0 c30 0 35 -3 38 -27z"/>
<path d="M1194 1436 c-3 -8 -4 -27 -2 -43 3 -26 6 -28 56 -31 50 -3 52 -4 52
-33 0 -29 0 -29 -60 -29 -103 0 -167 -50 -172 -135 l-3 -50 -38 -3 c-37 -3
-38 -4 -35 -40 3 -35 5 -37 41 -40 l37 -3 0 -51 c0 -47 3 -54 42 -90 40 -37
43 -38 115 -38 l73 0 0 -34 0 -35 -52 -3 -53 -3 0 -40 0 -40 150 0 150 0 3 34
c4 41 -8 51 -65 51 -42 0 -43 1 -43 35 l0 35 164 0 164 0 25 -34 26 -34 -30
-6 c-28 -5 -30 -9 -27 -43 l3 -38 150 0 150 0 0 40 c0 39 -1 40 -40 43 -41 3
-85 34 -85 59 0 10 26 13 115 13 l115 0 0 70 c0 49 -4 70 -12 71 -37 3 -64 -5
-81 -27 -17 -23 -25 -24 -121 -24 l-103 0 -27 38 c-14 21 -26 41 -26 45 0 4
28 7 62 7 50 0 67 5 94 25 57 44 64 54 64 100 0 24 4 47 10 50 14 9 48 -12 55
-35 5 -16 15 -20 46 -20 l40 0 -3 73 -3 72 -45 1 c-103 2 -100 1 -100 37 0 23
-8 41 -27 59 -67 61 -48 58 -411 58 -278 0 -334 -2 -338 -14z m664 -92 c12 -8
22 -22 22 -30 0 -12 -38 -14 -245 -14 l-245 0 0 30 0 30 223 0 c185 0 226 -3
245 -16z m-560 -271 l3 -133 -55 0 c-80 0 -86 10 -86 135 0 96 2 105 23 120
14 10 38 15 67 13 l45 -3 3 -132z m582 109 c0 -17 -9 -37 -21 -48 -19 -17 -41
-19 -222 -22 -110 -2 -211 -1 -224 3 -20 5 -23 12 -23 50 l0 45 245 0 245 0 0
-28z m-274 -189 c19 -20 34 -41 34 -45 0 -4 -56 -8 -125 -8 l-125 0 0 38 c0
21 3 42 7 45 3 4 44 7 91 7 l84 0 34 -37z"/>
</g>
</svg>
